# xmcd CD database file
#
# Track frame offsets:
#	150
#	10607
#	20785
#	31197
#	41002
#	52110
#	61345
#	71550
#	83815
#	93642
#
# Disc length: 1374 seconds
#
# Revision: 2
# Processed by: cddbd v1.5.2PL0 Copyright (c) Steve Scherf et al.
# Submitted via: CDex 1.51
#
DISCID=7f055c0a
DTITLE=Roy Orbison - Roy Orbison
DYEAR=1990
DGENRE=Rock´n´Roll
TTITLE0=Chicken Hearted
TTITLE1=Devil Doll
TTITLE2=Domino
TTITLE3=Go Go Go
TTITLE4=I Never Knew
TTITLE5=He's Too Late
TTITLE6=Ooby Dooby
TTITLE7=Trying to Get to You
TTITLE8=You're Gonna Cry
TTITLE9=You're My Baby
EXTD=YEAR: 1990
EXTT0=
EXTT1=
EXTT2=
EXTT3=
EXTT4=
EXTT5=
EXTT6=
EXTT7=
EXTT8=
EXTT9=
PLAYORDER=
